<?xml version="1.0" encoding="UTF-8" standalone="no"?>
<!-- Created with Inkscape (http://www.inkscape.org/) -->

<svg
   width="116.91868mm"
   height="30.815434mm"
   viewBox="0 0 116.91868 30.815434"
   version="1.1"
   id="svg1"
   inkscape:version="1.3.2 (091e20e, 2023-11-25, custom)"
   sodipodi:docname="logo2.svg"
   xmlns:inkscape="http://www.inkscape.org/namespaces/inkscape"
   xmlns:sodipodi="http://sodipodi.sourceforge.net/DTD/sodipodi-0.dtd"
   xmlns="http://www.w3.org/2000/svg"
   xmlns:svg="http://www.w3.org/2000/svg">
  <sodipodi:namedview
     id="namedview1"
     pagecolor="#505050"
     bordercolor="#eeeeee"
     borderopacity="1"
     inkscape:showpageshadow="0"
     inkscape:pageopacity="0"
     inkscape:pagecheckerboard="0"
     inkscape:deskcolor="#505050"
     inkscape:document-units="mm"
     inkscape:zoom="0.66903058"
     inkscape:cx="345.2757"
     inkscape:cy="378.90644"
     inkscape:window-width="1920"
     inkscape:window-height="986"
     inkscape:window-x="-11"
     inkscape:window-y="-11"
     inkscape:window-maximized="1"
     inkscape:current-layer="layer1" />
  <defs
     id="defs1" />
  <g
     inkscape:label="Layer 1"
     inkscape:groupmode="layer"
     id="layer1"
     transform="translate(-13.962168,-48.13173)">
    <g
       id="g41"
       transform="matrix(0.55712314,0,0,0.55712314,1.5886161,-8.4217478)">
      <path
         style="font-size:59.4328px;font-family:'BD StreetSign Sans';-inkscape-font-specification:'BD StreetSign Sans';fill:#ffffff;stroke-width:0.696476"
         d="m 169.81014,155.2987 h 5.94328 l 1.96128,-3.03107 c 1.24809,1.60468 4.04143,3.6254 7.96399,3.6254 4.1603,0 7.90457,-2.13958 7.90457,-8.73663 v -20.86091 c 0,-6.59704 -2.91221,-8.73662 -7.07251,-8.73662 -3.6254,0 -6.24044,2.08015 -7.78569,3.8037 v -11.7677 h -8.91492 z m 8.91492,-8.26116 v -20.50432 c 1.24808,-1.60468 2.61504,-1.90185 3.74426,-1.90185 1.12923,0 2.19902,0.5349 2.19902,3.03108 v 18.24587 c 0,2.49617 -1.06979,3.03107 -2.19902,3.03107 -1.12922,0 -2.49618,-0.29717 -3.74426,-1.90185 z"
         id="path33" />
      <path
         style="font-size:59.4328px;font-family:'BD StreetSign Sans';-inkscape-font-specification:'BD StreetSign Sans';fill:#ffffff;stroke-width:0.696476"
         d="m 152.3263,155.89303 c 2.85278,0 6.59704,-1.54526 8.61776,-4.10087 l 0.47546,3.50654 h 5.94328 v -30.66733 c 0,-6.47817 -2.85277,-11.76769 -11.88656,-11.76769 -9.03379,0 -11.88656,5.28952 -11.88656,11.76769 v 2.91221 l 8.91492,-1.12922 v -3.44711 c 0,-1.84241 1.24809,-2.67447 3.03107,-2.67447 1.72355,0 2.91221,0.83206 2.91221,2.67447 v 6.41875 h -3.2688 c -6.18101,0 -12.18373,2.49617 -12.18373,10.75733 v 4.99236 c 0,7.90456 3.86313,10.75734 9.33095,10.75734 z m -0.41603,-11.7677 v -4.93292 c 0,-3.09051 1.18866,-4.39803 3.982,-4.39803 h 2.55561 v 10.34131 c 0,2.55561 -1.48582,3.38767 -3.2688,3.38767 -1.72355,0 -3.26881,-0.71319 -3.26881,-4.39803 z"
         id="path34" />
      <path
         style="font-size:59.4328px;font-family:'BD StreetSign Sans';-inkscape-font-specification:'BD StreetSign Sans';fill:#ffffff;stroke-width:0.696476"
         d="m 131.31147,155.2987 h 9.86584 v -7.36967 h -4.81405 v -38.33416 h -8.91492 v 41.8407 c 0,2.25844 1.60468,3.86313 3.86313,3.86313 z"
         id="path35" />
      <path
         style="font-size:59.4328px;font-family:'BD StreetSign Sans';-inkscape-font-specification:'BD StreetSign Sans';fill:#ffffff;stroke-width:0.696476"
         d="m 112.83472,110.7241 h -12.59975 v 44.5746 h 9.15265 v -17.77041 h 2.73391 c 2.08014,0 3.50653,1.24809 3.50653,3.68483 v 14.08558 h 9.15265 v -10.99507 c 0,-3.74427 -0.59433,-8.08286 -3.50653,-9.74698 3.0905,-1.42639 4.16029,-5.88385 4.16029,-9.27152 v -2.31788 c 0,-6.18101 -2.08014,-12.24315 -12.59975,-12.24315 z m -3.4471,19.43452 V 118.1532 h 3.38767 c 2.08014,0 3.50653,0.83206 3.50653,3.2688 v 5.46782 c 0,2.43674 -1.42639,3.2688 -3.50653,3.2688 z"
         id="path36" />
      <path
         style="font-size:59.4328px;font-family:'BD StreetSign Sans';-inkscape-font-specification:'BD StreetSign Sans';fill:#ffffff;stroke-width:0.696476"
         d="m 72.028825,123.56158 v 31.73712 h 9.152652 v -14.26387 h 6.894205 v 14.26387 h 9.15265 v -31.73712 c 0,-6.18101 -2.080147,-13.43181 -12.599753,-13.43181 -10.519606,0 -12.599754,7.2508 -12.599754,13.43181 z m 9.152652,11.52997 v -13.96671 c 0,-2.43675 1.366954,-3.56597 3.387669,-3.56597 2.080148,0 3.506536,1.12922 3.506536,3.56597 v 13.96671 z"
         id="path37" />
      <path
         style="font-size:59.4328px;font-family:'BD StreetSign Sans';-inkscape-font-specification:'BD StreetSign Sans';fill:#ffffff;stroke-width:0.696476"
         d="m 55.282496,155.2987 h 9.152651 v -36.84834 h 6.597041 V 110.7241 H 48.685455 v 7.72626 h 6.597041 z"
         id="path38" />
      <path
         style="font-size:59.4328px;font-family:'BD StreetSign Sans';-inkscape-font-specification:'BD StreetSign Sans';fill:#ffffff;stroke-width:0.696476"
         d="m 22.209725,123.28194 v 31.73712 h 9.152651 v -14.26387 h 6.894205 v 14.26387 h 9.152651 v -31.73712 c 0,-6.18101 -2.080148,-13.43181 -12.599754,-13.43181 -10.519605,0 -12.599753,7.2508 -12.599753,13.43181 z m 9.152651,11.52997 V 120.8452 c 0,-2.43675 1.366954,-3.56597 3.387669,-3.56597 2.080148,0 3.506536,1.12922 3.506536,3.56597 v 13.96671 z"
         id="path39" />
      <circle
         style="fill:#ffffff;stroke-width:0.264583"
         id="circle39"
         cx="189.5806"
         cy="111.93517"
         r="2.6565933" />
      <circle
         style="fill:#ffffff;stroke-width:0.221511"
         id="circle40"
         cx="198.44072"
         cy="106.54338"
         r="5.033546" />
      <circle
         style="fill:#ffffff;stroke-width:0.167105"
         id="circle41"
         cx="184.7408"
         cy="104.86553"
         r="1.6778483" />
      <g
         id="g42"
         transform="rotate(-30.451388,146.60402,-98.500193)">
        <path
           d="m 84.902407,125.19707 c -0.901476,-0.0309 -1.784881,0.55198 -2.269182,1.61767 l -10.165322,22.36807 -0.257728,0.56766 c -0.01686,0.0371 -0.02968,0.0756 -0.04527,0.11317 -0.122917,0.37978 -0.192018,0.79533 -0.192018,1.23272 v 0.63724 c 0,0.31617 0.03763,0.62062 0.103681,0.909 0.307841,1.34417 1.280017,2.32168 2.440027,2.32168 h 20.8461 c 0.748745,0 1.418377,-0.40923 1.882955,-1.05927 0.984318,-0.97721 1.276268,-2.73906 0.633006,-4.15454 L 87.455603,126.81474 c -0.509781,-1.12176 -1.461789,-1.70461 -2.411553,-1.60375 -0.04722,-0.005 -0.09447,-0.0123 -0.141642,-0.0139 z"
           style="fill:#ffffff;stroke-width:0.421342"
           id="path41" />
        <rect
           style="fill:#ffffff;stroke-width:0.420391"
           id="rect41"
           width="7.0984793"
           height="18.633509"
           x="81.547752"
           y="114.43893"
           rx="3.2308836"
           ry="4.9819464e-17" />
        <rect
           style="fill:#ffffff;stroke-width:0.47491"
           id="rect42"
           width="11.002644"
           height="2.5013914"
           x="79.595673"
           y="-114.72327"
           rx="1.0769612"
           transform="scale(1,-1)" />
      </g>
    </g>
  </g>
</svg>
